<svg width="301" height="300" xmlns="http://www.w3.org/2000/svg" xmlns:xlink="http://www.w3.org/1999/xlink" xml:space="preserve" overflow="hidden"><defs><clipPath id="clip0"><rect x="2200" y="40" width="301" height="300"/></clipPath></defs><g clip-path="url(#clip0)" transform="translate(-2200 -40)"><path d="M150.007 255.367C208.196 255.367 255.367 208.196 255.367 150.007 255.367 91.8174 208.196 44.6459 150.007 44.6459 91.8174 44.6459 44.6459 91.8174 44.6459 150.007 44.6459 208.196 91.8174 255.367 150.007 255.367Z" fill="#FF7EB6" transform="matrix(1.00333 0 0 1 2200 40)"/><path d="M112.024 69.3959 108.617 71.3721C106.341 72.694 104.461 71.849 103.275 69.8185L102.648 68.7282C98.178 70.5681 94.1576 67.7742 90.587 61.6142 86.6892 54.8955 86.5803 49.7167 91.5409 46.8548 96.5017 43.9792 100.931 46.6503 104.815 53.3827 108.385 59.5426 108.767 64.4489 104.978 67.379L106.464 69.941 110.866 67.3926 112.024 69.3959ZM103.193 56.5581 101.244 53.1918C98.8593 49.0626 96.0246 47.1273 92.7811 48.9944 89.5511 50.875 89.8101 54.2958 92.2087 58.4251L94.1576 61.7914C96.5425 65.9208 99.3908 67.856 102.621 65.9888 105.851 64.1082 105.592 60.6875 103.193 56.5581Z" fill="#FFFFFF" transform="matrix(1.00333 0 0 1 2200 40)"/><path d="M114.163 62.2418 113.455 60.075 119.029 58.2351 113.019 39.9869 107.445 41.8267 106.736 39.6597 120.555 35.1079 121.264 37.2747 115.69 39.1146 121.7 57.363 127.274 55.5231 127.983 57.69 114.163 62.2418Z" fill="#FFFFFF" transform="matrix(1.00333 0 0 1 2200 40)"/><path d="M130.722 53.1235 132.575 51.2019C134.633 53.3007 136.677 54.2137 139.485 53.9002 142.865 53.5187 144.528 51.6652 144.2 48.8169 143.942 46.5137 142.633 45.4235 139.403 45.2326L136.746 45.0828C132.071 44.8102 130.34 42.3025 129.999 39.318 129.523 34.9842 132.316 32.4085 137.073 31.877 140.793 31.4682 143.478 32.531 145.305 34.6299L143.519 36.5788C142.02 34.9978 140.221 34.003 137.304 34.3165 134.156 34.6708 132.534 36.2516 132.834 38.9227 133.066 41.0216 134.292 42.2617 137.672 42.4661L140.234 42.6297C144.908 42.9296 146.708 45.3417 147.048 48.4217 147.539 52.7827 144.855 55.7673 139.662 56.3397 135.478 56.8032 132.739 55.3585 130.722 53.1235Z" fill="#FFFFFF" transform="matrix(1.00333 0 0 1 2200 40)"/><path d="M158.837 44.0748 155.104 47.7682 154.381 55.3591 151.561 55.1002 153.795 31.4278 156.617 31.6868 155.444 44.0341 155.54 44.0341 159.001 40.3953 166.701 32.6407 170.094 32.9542 160.936 42.1533 168.092 56.6539 164.808 56.3404 158.825 44.0748 158.837 44.0748Z" fill="#FFFFFF" transform="matrix(1.00333 0 0 1 2200 40)"/><path d="M170.544 57.3483 171.225 55.1677 176.826 56.9123 182.537 38.5685 176.935 36.8242 177.617 34.6435 191.517 38.9638 190.837 41.1443 185.234 39.3999 179.525 57.7435 185.125 59.488 184.445 61.6685 170.544 57.3483Z" fill="#FFFFFF" transform="matrix(1.00333 0 0 1 2200 40)"/><path d="M206.605 49.1175 196.234 67.7202 193.767 66.3437 204.139 47.741 197.283 43.9115 198.497 41.7446 214.687 50.7665 213.474 52.9334 206.618 49.1039 206.605 49.1175Z" fill="#FFFFFF" transform="matrix(1.00333 0 0 1 2200 40)"/><path d="M61.4087 227.144 78.3487 210.449 88.9107 221.175 87.139 222.918 78.5941 214.238 72.8975 219.852 80.7201 227.798 78.9484 229.542 71.1258 221.597 63.4394 229.187 61.4223 227.144 61.4087 227.144Z" fill="#FFFFFF" transform="matrix(1.00333 0 0 1 2200 40)"/><path d="M90.4234 251.184 92.4814 244.409 85.49 239.776 80.0659 244.315 77.5855 242.665 96.8288 226.883 100.004 228.982 92.9856 252.859 90.4507 251.184 90.4234 251.184ZM96.8288 230.536 96.5699 230.373 87.4252 238.1 93.2718 241.97 96.8151 230.55 96.8288 230.536Z" fill="#FFFFFF" transform="matrix(1.00333 0 0 1 2200 40)"/><path d="M101.135 256.758 109.83 234.611 112.501 235.661 104.719 255.491 115.268 259.633 114.354 261.951 101.135 256.758Z" fill="#FFFFFF" transform="matrix(1.00333 0 0 1 2200 40)"/><path d="M124.29 264.471 128.161 241.003 130.996 241.467 127.52 262.482 138.696 264.335 138.287 266.788 124.277 264.471 124.29 264.471Z" fill="#FFFFFF" transform="matrix(1.00333 0 0 1 2200 40)"/><path d="M171.716 265.141 165.815 242.108 180.398 238.36 181.01 240.773 169.208 243.798 171.198 251.553 182.005 248.772 182.618 251.185 171.811 253.966 174.497 264.432 171.716 265.141Z" fill="#FFFFFF" transform="matrix(1.00333 0 0 1 2200 40)"/><path d="M195.048 258.081 184.5 236.752 197.692 230.225 198.795 232.459 188.179 237.706 191.723 244.889 201.971 239.819 203.075 242.053 192.826 247.124 196.52 254.578 207.136 249.331 208.241 251.567 195.048 258.095 195.048 258.081Z" fill="#FFFFFF" transform="matrix(1.00333 0 0 1 2200 40)"/><path d="M212.874 244.315 213.46 241.685C216.35 242.366 218.57 242.039 220.833 240.255 223.545 238.115 223.994 235.634 222.222 233.386 220.792 231.573 219.088 231.341 216.2 232.936L213.828 234.243C209.658 236.533 206.836 235.334 204.983 232.977 202.285 229.555 203.333 225.863 207.15 222.85 210.134 220.493 213.024 219.961 215.694 220.752L215.191 223.368C213.065 222.824 210.993 222.959 208.649 224.799 206.128 226.789 205.569 229.01 207.232 231.123 208.54 232.786 210.243 233.168 213.255 231.532L215.544 230.292C219.729 228.03 222.55 229.107 224.458 231.546 227.184 234.993 226.434 238.973 222.263 242.257 218.911 244.902 215.791 245.147 212.874 244.329L212.874 244.315Z" fill="#FFFFFF" transform="matrix(1.00333 0 0 1 2200 40)"/><path d="M224.117 210.149 240.43 223.831 238.591 226.039 222.277 212.356 217.153 218.475 215.244 216.88 227.333 202.448 229.241 204.042 224.117 210.161 224.117 210.149Z" fill="#FFFFFF" transform="matrix(1.00333 0 0 1 2200 40)"/><path d="M150.007 202.285C121.183 202.285 97.7285 178.831 97.7285 150.007 97.7285 121.183 121.183 97.7285 150.007 97.7285 178.831 97.7285 202.285 121.183 202.285 150.007 202.285 178.831 178.831 202.285 150.007 202.285ZM150.007 99.9091C122.382 99.9091 99.9091 122.382 99.9091 150.007 99.9091 177.631 122.382 200.104 150.007 200.104 177.631 200.104 200.104 177.631 200.104 150.007 200.104 122.382 177.631 99.9091 150.007 99.9091Z" fill="#FFFFFF" transform="matrix(1.00333 0 0 1 2200 40)"/><path d="M168.826 157.448 168.717 155.267C190.646 154.108 199.613 151.411 200.104 149.966 199.381 147.962 182.019 144.269 150.006 144.269 148.63 144.269 147.28 144.269 145.932 144.296L145.903 142.115C147.253 142.102 148.616 142.088 149.993 142.088 163.717 142.088 176.622 142.797 186.34 144.092 202.285 146.217 202.285 148.862 202.285 149.993 202.285 154.94 181.325 156.78 168.826 157.433L168.826 157.448Z" fill="#FFFFFF" transform="matrix(1.00333 0 0 1 2200 40)"/><path d="M150.007 157.925C136.283 157.925 123.377 157.217 113.66 155.922 97.7148 153.795 97.7148 151.152 97.7148 150.021 97.7148 145.074 118.675 143.234 131.172 142.579L131.281 144.76C109.353 145.919 100.386 148.617 99.8953 150.062 100.618 152.065 117.98 155.758 149.993 155.758 151.37 155.758 152.718 155.758 154.068 155.731L154.095 157.912C152.745 157.925 151.383 157.939 150.007 157.939L150.007 157.925Z" fill="#FFFFFF" transform="matrix(1.00333 0 0 1 2200 40)"/><path d="M134.565 122.153 132.696 123.274 166.138 179.019 168.007 177.897 134.565 122.153Z" fill="#FFFFFF" transform="matrix(1.00333 0 0 1 2200 40)"/><path d="M131.24 123.788C127.82 123.788 125.026 121.007 125.026 117.573 125.026 114.139 127.806 111.359 131.24 111.359 134.675 111.359 137.455 114.139 137.455 117.573 137.455 121.007 134.675 123.788 131.24 123.788ZM131.24 113.553C129.019 113.553 127.206 115.365 127.206 117.587 127.206 119.808 129.019 121.621 131.24 121.621 133.462 121.621 135.274 119.808 135.274 117.587 135.274 115.365 133.462 113.553 131.24 113.553Z" fill="#FFFFFF" transform="matrix(1.00333 0 0 1 2200 40)"/><path d="M168.773 188.629C165.351 188.629 162.558 185.849 162.558 182.414 162.558 178.98 165.338 176.2 168.773 176.2 172.207 176.2 174.986 178.98 174.986 182.414 174.986 185.849 172.207 188.629 168.773 188.629ZM168.773 178.394C166.551 178.394 164.738 180.207 164.738 182.428 164.738 184.65 166.551 186.463 168.773 186.463 170.993 186.463 172.806 184.65 172.806 182.428 172.806 180.207 170.993 178.394 168.773 178.394Z" fill="#FFFFFF" transform="matrix(1.00333 0 0 1 2200 40)"/><path d="M150.007 185.223C138.45 185.223 127.575 184.514 119.384 183.205 107.255 181.283 105.852 178.913 105.852 177.304 105.852 175.697 107.255 173.325 119.384 171.403 127.575 170.108 138.45 169.387 150.007 169.387 161.564 169.387 172.439 170.094 180.63 171.403 192.76 173.325 194.164 175.697 194.164 177.304 194.164 180.385 187.375 182.66 173.979 184.078L173.748 181.91C188.888 180.317 191.983 177.877 191.983 177.304 191.983 175.356 177.168 171.567 149.994 171.567 122.819 171.567 108.018 175.356 108.018 177.304 108.018 179.253 122.832 183.042 149.994 183.042 154.709 183.042 159.342 182.919 163.758 182.687L163.881 184.868C159.425 185.113 154.75 185.223 149.994 185.223L150.007 185.223Z" fill="#FFFFFF" transform="matrix(1.00333 0 0 1 2200 40)"/><path d="M150.007 130.614C138.45 130.614 127.575 129.906 119.384 128.597 107.255 126.676 105.852 124.304 105.852 122.696 105.852 119.63 112.638 117.354 126.008 115.937L126.239 118.103C111.126 119.698 108.032 122.137 108.032 122.696 108.032 124.645 122.846 128.434 150.007 128.434 177.168 128.434 191.996 124.645 191.996 122.696 191.996 120.747 177.183 116.959 150.007 116.959 145.292 116.959 140.658 117.081 136.243 117.313L136.12 115.132C140.576 114.887 145.251 114.778 150.007 114.778 161.564 114.778 172.439 115.487 180.63 116.795 192.76 118.717 194.164 121.088 194.164 122.696 194.164 124.304 192.76 126.676 180.63 128.597 172.439 129.892 161.564 130.614 150.007 130.614Z" fill="#FFFFFF" transform="matrix(1.00333 0 0 1 2200 40)"/><path d="M239.721 159.342 229.16 159.342 229.16 157.012 234.161 152.665C235.715 151.288 236.642 150.075 236.642 148.698L236.642 148.453C236.642 146.858 235.715 145.973 234.079 145.973 232.445 145.973 231.531 146.982 231.122 148.371L228.969 147.567C229.582 145.646 231.136 143.86 234.256 143.86 237.378 143.86 239.232 145.741 239.232 148.33 239.232 150.756 237.678 152.406 235.524 154.177L231.818 157.271 239.735 157.271 239.735 159.342 239.721 159.342Z" fill="#FFFFFF" transform="matrix(1.00333 0 0 1 2200 40)"/><path d="M242.325 151.724C242.325 146.75 244.056 143.846 247.94 143.846 251.825 143.846 253.555 146.75 253.555 151.724 253.555 156.698 251.825 159.6 247.94 159.6 244.056 159.6 242.325 156.698 242.325 151.724ZM251.021 153.031 251.021 150.415C251.021 147.621 250.162 145.85 247.926 145.85 245.692 145.85 244.833 147.621 244.833 150.415L244.833 153.031C244.833 155.826 245.692 157.598 247.926 157.598 250.162 157.598 251.021 155.826 251.021 153.031ZM246.577 151.968 246.577 151.492C246.577 150.906 246.931 150.443 247.94 150.443 248.949 150.443 249.303 150.906 249.303 151.492L249.303 151.968C249.303 152.554 248.949 153.018 247.94 153.018 246.931 153.018 246.577 152.554 246.577 151.968Z" fill="#FFFFFF" transform="matrix(1.00333 0 0 1 2200 40)"/><path d="M266.884 159.342 256.322 159.342 256.322 157.012 261.323 152.665C262.876 151.288 263.803 150.075 263.803 148.698L263.803 148.453C263.803 146.858 262.876 145.973 261.242 145.973 259.606 145.973 258.693 146.982 258.284 148.371L256.131 147.567C256.743 145.646 258.297 143.86 261.419 143.86 264.539 143.86 266.393 145.741 266.393 148.33 266.393 150.756 264.839 152.406 262.685 154.177L258.979 157.271 266.897 157.271 266.897 159.342 266.884 159.342Z" fill="#FFFFFF" transform="matrix(1.00333 0 0 1 2200 40)"/><path d="M276.463 159.341 276.463 156.371 269.186 156.371 269.186 154.271 275.591 144.105 278.808 144.105 278.808 154.449 280.961 154.449 280.961 156.371 278.808 156.371 278.808 159.341 276.463 159.341ZM271.257 154.449 276.45 154.449 276.45 146.353 276.313 146.353 271.244 154.449 271.257 154.449Z" fill="#FFFFFF" transform="matrix(1.00333 0 0 1 2200 40)"/><path d="M31.6585 159.342 21.0967 159.342 21.0967 157.012 26.0982 152.665C27.6518 151.288 28.5785 150.075 28.5785 148.698L28.5785 148.453C28.5785 146.858 27.6518 145.973 26.0164 145.973 24.3811 145.973 23.4679 146.982 23.0591 148.371L20.9058 147.567C21.5191 145.646 23.0727 143.86 26.1935 143.86 29.3145 143.86 31.1679 145.741 31.1679 148.33 31.1679 150.756 29.6142 152.406 27.461 154.177L23.7541 157.271 31.6722 157.271 31.6722 159.342 31.6585 159.342Z" fill="#FFFFFF" transform="matrix(1.00333 0 0 1 2200 40)"/><path d="M34.2621 151.724C34.2621 146.75 35.9929 143.846 39.8771 143.846 43.7611 143.846 45.4919 146.75 45.4919 151.724 45.4919 156.698 43.7611 159.6 39.8771 159.6 35.9929 159.6 34.2621 156.698 34.2621 151.724ZM42.9706 153.031 42.9706 150.415C42.9706 147.621 42.1121 145.85 39.8771 145.85 37.6419 145.85 36.7834 147.621 36.7834 150.415L36.7834 153.031C36.7834 155.826 37.6419 157.598 39.8771 157.598 42.1121 157.598 42.9706 155.826 42.9706 153.031ZM38.5142 151.968 38.5142 151.492C38.5142 150.906 38.8685 150.443 39.8771 150.443 40.8855 150.443 41.2398 150.906 41.2398 151.492L41.2398 151.968C41.2398 152.554 40.8855 153.018 39.8771 153.018 38.8685 153.018 38.5142 152.554 38.5142 151.968Z" fill="#FFFFFF" transform="matrix(1.00333 0 0 1 2200 40)"/><path d="M58.8328 159.342 48.2709 159.342 48.2709 157.012 53.2724 152.665C54.826 151.288 55.7527 150.075 55.7527 148.698L55.7527 148.453C55.7527 146.858 54.826 145.973 53.1907 145.973 51.5553 145.973 50.6421 146.982 50.2333 148.371L48.0801 147.567C48.6933 145.646 50.2469 143.86 53.3679 143.86 56.4887 143.86 58.3422 145.741 58.3422 148.33 58.3422 150.756 56.7886 152.406 54.6352 154.177L50.9284 157.271 58.8464 157.271 58.8464 159.342 58.8328 159.342Z" fill="#FFFFFF" transform="matrix(1.00333 0 0 1 2200 40)"/><path d="M68.4001 159.341 68.4001 156.371 61.1227 156.371 61.1227 154.271 67.528 144.105 70.7442 144.105 70.7442 154.449 72.8976 154.449 72.8976 156.371 70.7442 156.371 70.7442 159.341 68.4001 159.341ZM63.2079 154.449 68.4001 154.449 68.4001 146.353 68.2639 146.353 63.1942 154.449 63.2079 154.449Z" fill="#FFFFFF" transform="matrix(1.00333 0 0 1 2200 40)"/><path d="M150.007 255.367C208.196 255.367 255.367 208.196 255.367 150.007 255.367 91.8174 208.196 44.6459 150.007 44.6459 91.8174 44.6459 44.6459 91.8174 44.6459 150.007 44.6459 208.196 91.8174 255.367 150.007 255.367Z" fill="#FF7EB6" transform="matrix(1.00333 0 0 1 2200 40)"/><path d="M150.007 300C232.845 300 300 232.845 300 150.007 300 67.168 232.845 0.0138193 150.007 0.0138193 67.168 0.0138193 0.0138193 67.168 0.0138193 150.007 0.0138193 232.845 67.168 300 150.007 300Z" fill="#21272A" transform="matrix(1.00333 0 0 1 2200 40)"/><path d="M112.024 69.3959 108.617 71.3721C106.341 72.694 104.461 71.849 103.275 69.8185L102.648 68.7282C98.178 70.5681 94.1576 67.7742 90.587 61.6142 86.6892 54.8955 86.5803 49.7167 91.5409 46.8548 96.5017 43.9792 100.931 46.6503 104.815 53.3827 108.385 59.5426 108.767 64.4489 104.978 67.379L106.464 69.941 110.866 67.3926 112.024 69.3959ZM103.193 56.5581 101.244 53.1918C98.8593 49.0626 96.0246 47.1273 92.7811 48.9944 89.5511 50.875 89.8101 54.2958 92.2087 58.4251L94.1576 61.7914C96.5425 65.9208 99.3908 67.856 102.621 65.9888 105.851 64.1082 105.592 60.6875 103.193 56.5581Z" fill="#FFFFFF" transform="matrix(1.00333 0 0 1 2200 40)"/><path d="M114.163 62.2418 113.455 60.075 119.029 58.2351 113.019 39.9869 107.445 41.8267 106.736 39.6597 120.555 35.1079 121.264 37.2747 115.69 39.1146 121.7 57.363 127.274 55.5231 127.983 57.69 114.163 62.2418Z" fill="#FFFFFF" transform="matrix(1.00333 0 0 1 2200 40)"/><path d="M130.722 53.1235 132.575 51.2019C134.633 53.3007 136.677 54.2137 139.485 53.9002 142.865 53.5187 144.528 51.6652 144.2 48.8169 143.942 46.5137 142.633 45.4235 139.403 45.2326L136.746 45.0828C132.071 44.8102 130.34 42.3025 129.999 39.318 129.523 34.9842 132.316 32.4085 137.073 31.877 140.793 31.4682 143.478 32.531 145.305 34.6299L143.519 36.5788C142.02 34.9978 140.221 34.003 137.304 34.3165 134.156 34.6708 132.534 36.2516 132.834 38.9227 133.066 41.0216 134.292 42.2617 137.672 42.4661L140.234 42.6297C144.908 42.9296 146.708 45.3417 147.048 48.4217 147.539 52.7827 144.855 55.7673 139.662 56.3397 135.478 56.8032 132.739 55.3585 130.722 53.1235Z" fill="#FFFFFF" transform="matrix(1.00333 0 0 1 2200 40)"/><path d="M158.837 44.0748 155.104 47.7682 154.381 55.3591 151.561 55.1002 153.795 31.4278 156.617 31.6868 155.444 44.0341 155.54 44.0341 159.001 40.3953 166.701 32.6407 170.094 32.9542 160.936 42.1533 168.092 56.6539 164.808 56.3404 158.825 44.0748 158.837 44.0748Z" fill="#FFFFFF" transform="matrix(1.00333 0 0 1 2200 40)"/><path d="M170.544 57.3483 171.225 55.1677 176.826 56.9123 182.537 38.5685 176.935 36.8242 177.617 34.6435 191.517 38.9638 190.837 41.1443 185.234 39.3999 179.525 57.7435 185.125 59.488 184.445 61.6685 170.544 57.3483Z" fill="#FFFFFF" transform="matrix(1.00333 0 0 1 2200 40)"/><path d="M206.605 49.1175 196.234 67.7202 193.767 66.3437 204.139 47.741 197.283 43.9115 198.497 41.7446 214.687 50.7665 213.474 52.9334 206.618 49.1039 206.605 49.1175Z" fill="#FFFFFF" transform="matrix(1.00333 0 0 1 2200 40)"/><path d="M61.4087 227.144 78.3487 210.449 88.9107 221.175 87.139 222.918 78.5941 214.238 72.8975 219.852 80.7201 227.798 78.9484 229.542 71.1258 221.597 63.4394 229.187 61.4223 227.144 61.4087 227.144Z" fill="#FFFFFF" transform="matrix(1.00333 0 0 1 2200 40)"/><path d="M90.4234 251.184 92.4814 244.409 85.49 239.776 80.0659 244.315 77.5855 242.665 96.8288 226.883 100.004 228.982 92.9856 252.859 90.4507 251.184 90.4234 251.184ZM96.8288 230.536 96.5699 230.373 87.4252 238.1 93.2718 241.97 96.8151 230.55 96.8288 230.536Z" fill="#FFFFFF" transform="matrix(1.00333 0 0 1 2200 40)"/><path d="M101.135 256.758 109.83 234.611 112.501 235.661 104.719 255.491 115.268 259.633 114.354 261.951 101.135 256.758Z" fill="#FFFFFF" transform="matrix(1.00333 0 0 1 2200 40)"/><path d="M124.29 264.471 128.161 241.003 130.996 241.467 127.52 262.482 138.696 264.335 138.287 266.788 124.277 264.471 124.29 264.471Z" fill="#FFFFFF" transform="matrix(1.00333 0 0 1 2200 40)"/><path d="M171.716 265.141 165.815 242.108 180.398 238.36 181.01 240.773 169.208 243.798 171.198 251.553 182.005 248.772 182.618 251.185 171.811 253.966 174.497 264.432 171.716 265.141Z" fill="#FFFFFF" transform="matrix(1.00333 0 0 1 2200 40)"/><path d="M195.048 258.081 184.5 236.752 197.692 230.225 198.795 232.459 188.179 237.706 191.723 244.889 201.971 239.819 203.075 242.053 192.826 247.124 196.52 254.578 207.136 249.331 208.241 251.567 195.048 258.095 195.048 258.081Z" fill="#FFFFFF" transform="matrix(1.00333 0 0 1 2200 40)"/><path d="M212.874 244.315 213.46 241.685C216.35 242.366 218.57 242.039 220.833 240.255 223.545 238.115 223.994 235.634 222.222 233.386 220.792 231.573 219.088 231.341 216.2 232.936L213.828 234.243C209.658 236.533 206.836 235.334 204.983 232.977 202.285 229.555 203.333 225.863 207.15 222.85 210.134 220.493 213.024 219.961 215.694 220.752L215.191 223.368C213.065 222.824 210.993 222.959 208.649 224.799 206.128 226.789 205.569 229.01 207.232 231.123 208.54 232.786 210.243 233.168 213.255 231.532L215.544 230.292C219.729 228.03 222.55 229.107 224.458 231.546 227.184 234.993 226.434 238.973 222.263 242.257 218.911 244.902 215.791 245.147 212.874 244.329L212.874 244.315Z" fill="#FFFFFF" transform="matrix(1.00333 0 0 1 2200 40)"/><path d="M224.117 210.149 240.43 223.831 238.591 226.039 222.277 212.356 217.153 218.475 215.244 216.88 227.333 202.448 229.241 204.042 224.117 210.161 224.117 210.149Z" fill="#FFFFFF" transform="matrix(1.00333 0 0 1 2200 40)"/><path d="M150.007 202.285C121.183 202.285 97.7285 178.831 97.7285 150.007 97.7285 121.183 121.183 97.7285 150.007 97.7285 178.831 97.7285 202.285 121.183 202.285 150.007 202.285 178.831 178.831 202.285 150.007 202.285ZM150.007 99.9091C122.382 99.9091 99.9091 122.382 99.9091 150.007 99.9091 177.631 122.382 200.104 150.007 200.104 177.631 200.104 200.104 177.631 200.104 150.007 200.104 122.382 177.631 99.9091 150.007 99.9091Z" fill="#FF7EB6" transform="matrix(1.00333 0 0 1 2200 40)"/><path d="M168.826 157.448 168.717 155.267C190.646 154.108 199.613 151.411 200.104 149.966 199.381 147.962 182.019 144.269 150.006 144.269 148.63 144.269 147.28 144.269 145.932 144.296L145.903 142.115C147.253 142.102 148.616 142.088 149.993 142.088 163.717 142.088 176.622 142.797 186.34 144.092 202.285 146.217 202.285 148.862 202.285 149.993 202.285 154.94 181.325 156.78 168.826 157.433L168.826 157.448Z" fill="#FF7EB6" transform="matrix(1.00333 0 0 1 2200 40)"/><path d="M150.007 157.925C136.283 157.925 123.377 157.217 113.66 155.922 97.7148 153.795 97.7148 151.152 97.7148 150.021 97.7148 145.074 118.675 143.234 131.172 142.579L131.281 144.76C109.353 145.919 100.386 148.617 99.8953 150.062 100.618 152.065 117.98 155.758 149.993 155.758 151.37 155.758 152.718 155.758 154.068 155.731L154.095 157.912C152.745 157.925 151.383 157.939 150.007 157.939L150.007 157.925Z" fill="#FF7EB6" transform="matrix(1.00333 0 0 1 2200 40)"/><path d="M134.565 122.153 132.696 123.274 166.138 179.019 168.007 177.897 134.565 122.153Z" fill="#FF7EB6" transform="matrix(1.00333 0 0 1 2200 40)"/><path d="M131.24 123.788C127.82 123.788 125.026 121.007 125.026 117.573 125.026 114.139 127.806 111.359 131.24 111.359 134.675 111.359 137.455 114.139 137.455 117.573 137.455 121.007 134.675 123.788 131.24 123.788ZM131.24 113.553C129.019 113.553 127.206 115.365 127.206 117.587 127.206 119.808 129.019 121.621 131.24 121.621 133.462 121.621 135.274 119.808 135.274 117.587 135.274 115.365 133.462 113.553 131.24 113.553Z" fill="#FF7EB6" transform="matrix(1.00333 0 0 1 2200 40)"/><path d="M168.773 188.629C165.351 188.629 162.558 185.849 162.558 182.414 162.558 178.98 165.338 176.2 168.773 176.2 172.207 176.2 174.986 178.98 174.986 182.414 174.986 185.849 172.207 188.629 168.773 188.629ZM168.773 178.394C166.551 178.394 164.738 180.207 164.738 182.428 164.738 184.65 166.551 186.463 168.773 186.463 170.993 186.463 172.806 184.65 172.806 182.428 172.806 180.207 170.993 178.394 168.773 178.394Z" fill="#FF7EB6" transform="matrix(1.00333 0 0 1 2200 40)"/><path d="M150.007 185.223C138.45 185.223 127.575 184.514 119.384 183.205 107.255 181.283 105.852 178.913 105.852 177.304 105.852 175.697 107.255 173.325 119.384 171.403 127.575 170.108 138.45 169.387 150.007 169.387 161.564 169.387 172.439 170.094 180.63 171.403 192.76 173.325 194.164 175.697 194.164 177.304 194.164 180.385 187.375 182.66 173.979 184.078L173.748 181.91C188.888 180.317 191.983 177.877 191.983 177.304 191.983 175.356 177.168 171.567 149.994 171.567 122.819 171.567 108.018 175.356 108.018 177.304 108.018 179.253 122.832 183.042 149.994 183.042 154.709 183.042 159.342 182.919 163.758 182.687L163.881 184.868C159.425 185.113 154.75 185.223 149.994 185.223L150.007 185.223Z" fill="#FF7EB6" transform="matrix(1.00333 0 0 1 2200 40)"/><path d="M150.007 130.614C138.45 130.614 127.575 129.906 119.384 128.597 107.255 126.676 105.852 124.304 105.852 122.696 105.852 119.63 112.638 117.354 126.008 115.937L126.239 118.103C111.126 119.698 108.032 122.137 108.032 122.696 108.032 124.645 122.846 128.434 150.007 128.434 177.168 128.434 191.996 124.645 191.996 122.696 191.996 120.747 177.183 116.959 150.007 116.959 145.292 116.959 140.658 117.081 136.243 117.313L136.12 115.132C140.576 114.887 145.251 114.778 150.007 114.778 161.564 114.778 172.439 115.487 180.63 116.795 192.76 118.717 194.164 121.088 194.164 122.696 194.164 124.304 192.76 126.676 180.63 128.597 172.439 129.892 161.564 130.614 150.007 130.614Z" fill="#FF7EB6" transform="matrix(1.00333 0 0 1 2200 40)"/><path d="M239.999 159.342 229.436 159.342 229.436 157.012 234.437 152.665C235.991 151.288 236.918 150.075 236.918 148.698L236.918 148.453C236.918 146.858 235.991 145.973 234.357 145.973 232.721 145.973 231.808 146.982 231.399 148.371L229.245 147.567C229.858 145.646 231.412 143.86 234.533 143.86 237.654 143.86 239.508 145.741 239.508 148.33 239.508 150.756 237.954 152.406 235.8 154.177L232.094 157.271 240.011 157.271 240.011 159.342 239.999 159.342Z" fill="#FFFFFF" transform="matrix(1.00333 0 0 1 2200 40)"/><path d="M242.601 151.724C242.601 146.75 244.333 143.846 248.216 143.846 252.1 143.846 253.831 146.75 253.831 151.724 253.831 156.698 252.1 159.6 248.216 159.6 244.333 159.6 242.601 156.698 242.601 151.724ZM251.309 153.031 251.309 150.415C251.309 147.621 250.452 145.85 248.216 145.85 245.982 145.85 245.123 147.621 245.123 150.415L245.123 153.031C245.123 155.826 245.982 157.598 248.216 157.598 250.452 157.598 251.309 155.826 251.309 153.031ZM246.853 151.968 246.853 151.492C246.853 150.906 247.208 150.443 248.216 150.443 249.225 150.443 249.579 150.906 249.579 151.492L249.579 151.968C249.579 152.554 249.225 153.018 248.216 153.018 247.208 153.018 246.853 152.554 246.853 151.968Z" fill="#FFFFFF" transform="matrix(1.00333 0 0 1 2200 40)"/><path d="M267.173 159.342 256.61 159.342 256.61 157.012 261.611 152.665C263.165 151.288 264.092 150.075 264.092 148.698L264.092 148.453C264.092 146.858 263.165 145.973 261.531 145.973 259.895 145.973 258.982 146.982 258.573 148.371L256.419 147.567C257.033 145.646 258.586 143.86 261.708 143.86 264.828 143.86 266.682 145.741 266.682 148.33 266.682 150.756 265.128 152.406 262.974 154.177L259.268 157.271 267.185 157.271 267.185 159.342 267.173 159.342Z" fill="#FFFFFF" transform="matrix(1.00333 0 0 1 2200 40)"/><path d="M279.409 144.289 279.409 146.393 272.53 146.393 272.14 151.775 272.314 151.775C273.007 150.582 273.876 149.822 275.59 149.822 278.193 149.822 280.19 151.579 280.19 154.552 280.19 157.547 278.193 159.695 274.722 159.695 271.988 159.695 270.556 158.37 269.622 156.982L271.402 155.594C272.161 156.766 273.007 157.654 274.765 157.654 276.631 157.654 277.651 156.548 277.651 154.79L277.651 154.617C277.651 152.86 276.61 151.818 274.765 151.818 273.42 151.818 272.704 152.404 272.14 153.011L270.122 152.73 270.686 144.289 279.409 144.289Z" fill="#FFFFFF" transform="matrix(1.00333 0 0 1 2200 40)"/><path d="M31.6585 159.342 21.0967 159.342 21.0967 157.012 26.0982 152.665C27.6518 151.288 28.5785 150.075 28.5785 148.698L28.5785 148.453C28.5785 146.858 27.6518 145.973 26.0164 145.973 24.3811 145.973 23.4679 146.982 23.0591 148.371L20.9058 147.567C21.5191 145.646 23.0727 143.86 26.1935 143.86 29.3145 143.86 31.1679 145.741 31.1679 148.33 31.1679 150.756 29.6142 152.406 27.461 154.177L23.7541 157.271 31.6722 157.271 31.6722 159.342 31.6585 159.342Z" fill="#FFFFFF" transform="matrix(1.00333 0 0 1 2200 40)"/><path d="M34.2621 151.724C34.2621 146.75 35.9929 143.846 39.8771 143.846 43.7611 143.846 45.4919 146.75 45.4919 151.724 45.4919 156.698 43.7611 159.6 39.8771 159.6 35.9929 159.6 34.2621 156.698 34.2621 151.724ZM42.9706 153.031 42.9706 150.415C42.9706 147.621 42.1121 145.85 39.8771 145.85 37.6419 145.85 36.7834 147.621 36.7834 150.415L36.7834 153.031C36.7834 155.826 37.6419 157.598 39.8771 157.598 42.1121 157.598 42.9706 155.826 42.9706 153.031ZM38.5142 151.968 38.5142 151.492C38.5142 150.906 38.8685 150.443 39.8771 150.443 40.8855 150.443 41.2398 150.906 41.2398 151.492L41.2398 151.968C41.2398 152.554 40.8855 153.018 39.8771 153.018 38.8685 153.018 38.5142 152.554 38.5142 151.968Z" fill="#FFFFFF" transform="matrix(1.00333 0 0 1 2200 40)"/><path d="M58.8328 159.342 48.2709 159.342 48.2709 157.012 53.2724 152.665C54.826 151.288 55.7527 150.075 55.7527 148.698L55.7527 148.453C55.7527 146.858 54.826 145.973 53.1907 145.973 51.5553 145.973 50.6421 146.982 50.2333 148.371L48.0801 147.567C48.6933 145.646 50.2469 143.86 53.3679 143.86 56.4887 143.86 58.3422 145.741 58.3422 148.33 58.3422 150.756 56.7886 152.406 54.6352 154.177L50.9284 157.271 58.8464 157.271 58.8464 159.342 58.8328 159.342Z" fill="#FFFFFF" transform="matrix(1.00333 0 0 1 2200 40)"/><path d="M71.0689 144.289 71.0689 146.393 64.1905 146.393 63.8 151.775 63.9736 151.775C64.6678 150.582 65.5359 149.822 67.25 149.822 69.8537 149.822 71.85 151.579 71.85 154.552 71.85 157.547 69.8537 159.695 66.3821 159.695 63.6481 159.695 62.216 158.37 61.2829 156.982L63.0623 155.594C63.8216 156.766 64.6678 157.654 66.4254 157.654 68.2915 157.654 69.3113 156.548 69.3113 154.79L69.3113 154.617C69.3113 152.86 68.2698 151.818 66.4254 151.818 65.0802 151.818 64.3642 152.404 63.8 153.011L61.782 152.73 62.3462 144.289 71.0689 144.289Z" fill="#FFFFFF" transform="matrix(1.00333 0 0 1 2200 40)"/></g></svg>